<?xml version="1.0" encoding="utf-8"?>
<!DOCTYPE svg PUBLIC "-//W3C//DTD SVG 1.1//EN" "http://www.w3.org/Graphics/SVG/1.1/DTD/svg11.dtd">
<svg version="1.1" xmlns="http://www.w3.org/2000/svg" xmlns:xlink="http://www.w3.org/1999/xlink" x="0px" y="0px" viewBox="0 0 1000 1000" enable-background="new 0 0 1000 1000" xml:space="preserve">
<g><g transform="translate(0.000000,511.000000) scale(0.100000,-0.100000)"><path d="M4904.3,4870.4c-218.2-26.8-392.4-88.1-468.9-164.6c-26.8-26.8-74.6-32.5-264.1-36.4c-204.8-1.9-250.7-7.7-361.8-51.7c-210.5-84.2-396.2-204.8-574.2-375.1c-446-430.7-669.9-993.4-698.6-1764.8c-21-560.8,68.9-1137,260.3-1684.4c147.4-421.1,191.4-796.2,122.5-1041.3c-24.9-91.9-51.7-135.9-128.2-214.4c-116.8-114.8-220.1-151.2-436.4-151.2c-82.3,0-149.3,0-149.3-3.8c0-15.3,260.3-183.7,363.7-235.4c335-168.4,727.3-231.6,1006.8-160.8c42.1,11.5,42.1,9.6,21.1-59.3c-28.7-95.7-118.7-170.4-189.5-155c-44,9.6-57.4,1.9-80.4-44c-38.3-72.7-68.9-268-68.9-438.3v-139.7l-128.2-59.4c-775.2-348.4-1678.6-790.5-2101.6-1029.8c-367.5-206.7-673.8-413.4-809.6-545.5L100-3601.3v-530.2v-530.2h4900h4900v530.2v530.2l-118.7,116.7C9452.1-3164.9,8474-2634.7,6872-1909.3l-130.2,59.4v139.7c0,170.3-30.6,365.6-68.9,438.3c-23,45.9-36.4,53.6-80.4,44c-67-13.4-162.7,59.3-193.3,145.5L6380-1025l147.4-11.5c338.8-28.7,740.7,95.7,1071.9,331.1c65.1,45.9,118.7,86.1,118.7,88c0,3.8-67,3.8-147.4,3.8c-195.2,0-312,36.4-415.4,126.3C7027-374.2,6984.9-270.8,6975.3-37.3c-11.5,252.7,28.7,472.8,141.6,802c254.6,736.9,327.3,1682.5,178,2352.4c-179.9,809.7-683.3,1387.7-1427.9,1640.4C5566.6,4858.9,5174.2,4904.8,4904.3,4870.4z"/></g></g>
</svg>