<?xml version="1.0" encoding="utf-8"?>
<!-- Generator: Adobe Illustrator 20.1.0, SVG Export Plug-In . SVG Version: 6.00 Build 0)  -->
<svg version="1.1" id="Layer_1" xmlns="http://www.w3.org/2000/svg" xmlns:xlink="http://www.w3.org/1999/xlink" x="0px" y="0px"
	 viewBox="0 0 465 492" style="enable-background:new 0 0 465 492;" xml:space="preserve">
<style type="text/css">
	.st0{fill:#FFE4BB;}
	.st1{fill:#603913;}
	.st2{fill:#020202;}
	.st3{fill:#E7D0E5;}
	.st4{fill:#FFFFFF;}
	.st5{fill:#E0F2F3;}
	.st6{fill:#EEB5A8;}
	.st7{fill:#221F5E;}
	.st8{fill:#0E0D09;}
	.st9{fill:#C49A6C;}
</style>
<g>
	<path class="st0" d="M175.1,331.9c0,0-2.9,41.2-16.4,56.2c-13.5,15-51.3,53.9-51.3,53.9s23.2,26.5,61.1,23.8s52.5-12.6,52.5-12.6
		s1-34.7,10.5-51.7c9.5-17,18.8-42.7,18.8-42.7L175.1,331.9z"/>
	<g>
		<path d="M172.6,331.9c-1.2,16.3-3.8,34.9-12.1,49.2c-4.6,8-12.3,14.6-18.6,21.2c-7.6,8-15.2,15.9-22.8,23.8
			c-4.5,4.7-9,9.4-13.6,14c-1,1-0.9,2.5,0,3.5c7.1,8.1,17.2,14.3,27,18.5c20.4,8.6,42.5,6.9,63.7,2.3c7-1.5,14-3.5,20.5-6.4
			c1.8-0.8,5.2-1.8,6.3-3.6c0.6-1,0.4-2.8,0.5-3.9c0.2-3.3,0.4-6.7,0.8-10c1-9.7,2.5-19.4,5.4-28.7c3.5-11,10.1-21.1,14.6-31.8
			c2.9-6.8,5.7-13.7,8.2-20.7c0.5-1.3-0.6-2.7-1.7-3.1c-25.1-9-50.1-17.9-75.2-26.9c-3-1.1-4.3,3.7-1.3,4.8
			c25.1,9,50.1,17.9,75.2,26.9c-0.6-1-1.2-2.1-1.7-3.1c-2.4,6.6-5,13-7.7,19.5c-4.3,10.2-10.3,19.7-14.1,30.1
			c-5.3,14.3-7.1,30.4-7.5,45.6c0.4-0.7,0.8-1.4,1.2-2.2c-4.1,2.7-9,4.3-13.7,5.7c-14.4,4.5-30.4,7.1-45.5,6.6
			c-18.6-0.6-38.9-9-51.5-23.2c0,1.2,0,2.4,0,3.5c11.8-12.1,23.5-24.3,35.2-36.6c6.4-6.8,14-13.5,19.2-21.3
			c6.1-9.2,8.9-20.7,11-31.4c1.4-7.4,2.6-15,3.1-22.6C177.8,328.7,172.8,328.7,172.6,331.9z"/>
	</g>
</g>
<g>
	<path class="st1" d="M84.5,144.8c0,0-17.1-25.5,18.5-63.5s85.1-28.6,113.5-28.4s43.5,11.9,43.5,11.9s136.2,16.9,131.3,88
		s21.9,82.3,21.9,82.3l-29.5-7.6c0,0,16.1,55.1,20.3,82.6c4.2,27.5,26.2,34.2,26.2,34.2l-43,25.2c0,0-113,18.9-141.3,15.3
		s-53.4-0.4-53.4-0.4l23.7,21.4c0,0-38.9,11.8-84.6-24s-42.3-97-42.3-97l-6.7,19.8c0,0,5.9-30.6-3-48.1c-8.8-17.5-32-27.6-25-60.8
		S84.5,144.8,84.5,144.8z"/>
	<g>
		<path class="st2" d="M86.7,143.6c-6.2-9.4-4-23.3-0.2-33c10.4-26.6,35.6-46.5,62.9-53c21.4-5.1,43.1-2.7,64.8-2.2
			c12.4,0.3,24.7,1.7,36.1,6.8c3.3,1.5,6.5,4.1,9.9,5.1c0.7,0.2-0.5-0.1,0.2,0c0.5,0.1,1,0.1,1.5,0.2c1.6,0.2,3.1,0.5,4.7,0.7
			c5.2,0.9,10.3,1.9,15.4,3c14.8,3.2,29.4,7.3,43.5,12.8c28.1,10.8,63.4,30.6,63.4,65.1c0,13.6-1.2,26.8,0.4,40.4
			c1.1,9.1,2.9,18.1,6.4,26.6c2.8,6.8,7.9,17.4,15.3,20.5c0.4,0.1,0.7,0.4,1,0.6c0.6-1.5,1.3-3,1.9-4.6c-9.8-2.5-19.7-5.1-29.5-7.6
			c-1.8-0.5-3.6,1.2-3.1,3.1c4.5,15.4,8.7,30.9,12.5,46.4c2.7,11,5.4,22.1,7.3,33.2c1.9,11,5.3,21.2,13.4,29.3
			c4.1,4.1,9.4,7.9,15,9.6c-0.2-1.5-0.4-3-0.6-4.6c-12,7-24.1,14.1-36.1,21.1c-2.1,1.2-4.2,2.6-6.3,3.7c-0.9,0.4,0.6,0-1.1,0.3
			c-4.6,0.7-9.1,1.5-13.7,2.2c-37.1,5.8-74.9,12.3-112.5,13.2c-11.4,0.3-22.7-1.6-34.1-2c-10.8-0.3-21.9-0.2-32.6,1.1
			c-2,0.2-3.5,2.7-1.8,4.3c7.9,7.1,15.8,14.3,23.7,21.4c0.4-1.4,0.7-2.8,1.1-4.2c-6.3,1.9-13.4,2-19.9,1.7
			c-17.7-0.9-34.7-7.1-49.7-16.3c-17-10.4-30.8-24.4-40-42.1c-6.5-12.6-10.6-26.4-12.7-40.5c-1-7-1.7-14.3-1.4-21.4
			c0.2-2.9-4-3.2-4.9-0.7c-2.2,6.6-4.5,13.2-6.7,19.8c1.6,0.4,3.2,0.9,4.8,1.3c1.8-9.3,2.4-19.1,1.8-28.5
			c-0.8-12.8-4.8-23.1-12.9-32.9c-7.6-9.2-15.8-18.1-17.7-30.5C54,197.1,61,179.4,69.5,166c4.5-7.1,10.1-14.2,16.8-19.4
			c2.5-2-1-5.5-3.5-3.5c-17,13.1-28.6,36.2-31.3,57.2c-1.7,13.4,2.1,25.5,10.2,36.2c7.4,9.8,16.3,17.8,19,30.2
			c2.6,11.9,1.9,25.2-0.3,37.1c-0.6,3.1,3.8,4.4,4.8,1.3c2.2-6.6,4.5-13.2,6.7-19.8c-1.6-0.2-3.3-0.4-4.9-0.7
			c-1.1,20.6,4.3,42.6,13.1,61c16.5,34.4,52.1,59.6,90.1,63.9c8.7,1,18.4,1.1,26.9-1.4c1.7-0.5,2.5-2.9,1.1-4.2
			c-7.9-7.1-15.8-14.3-23.7-21.4c-0.6,1.4-1.2,2.8-1.8,4.3c8.8-1.1,17.8-1.3,26.7-1.3c11.8,0.1,23.4,2.1,35.2,2.1
			c18.7,0.1,37.5-2.3,56-4.6c19.3-2.4,38.6-5.1,57.9-8.1c7.3-1.1,16.3-1,22.8-4.9c13.5-7.9,27-15.8,40.5-23.7
			c1.9-1.1,1.4-3.9-0.6-4.6c-4.4-1.4-8.5-4.3-11.8-7.4c-8.5-7.9-11.4-18-13.3-29.1c-3.7-21-9.4-41.8-15.1-62.4
			c-1.5-5.4-3-10.9-4.6-16.3c-1,1-2.1,2.1-3.1,3.1c9.8,2.5,19.7,5.1,29.5,7.6c2.6,0.7,4.6-3.4,1.9-4.6c-5.5-2.3-9.6-9-12.2-14.2
			c-10.6-21-9-45.5-8.4-68.2c0.9-35.2-32.2-56.8-61-68.9c-14.9-6.2-30.4-10.9-46.1-14.4c-8.4-1.9-17-3.9-25.6-4.8
			c-0.3,0-0.8-0.1-1.2-0.2c2,0.5,1.1,0.5,0.6-0.1c-1.5-1.8-5.1-3-7.1-3.9c-10.8-5-22.6-7.4-34.4-7.8c-21.9-0.7-44.2-2.9-65.9,1.2
			c-27.8,5.2-51.5,21.9-66,46.1c-8,13.4-13,31.1-6.1,46c0.4,0.8,0.7,1.6,1.2,2.3C84.1,148.8,88.5,146.3,86.7,143.6z"/>
	</g>
</g>
<g>
	<path class="st0" d="M366.4,294.8c0.7-13,3-44.9,10-101.2c4.1-33.2-17.4-71.4-62.4-96c-10.2,6.9-20.3,13.8-30.6,20.6
		c-37,24.6-78.6,37.7-120.6,50.1c-6,1.8-15.5,102.7-37.6,99.1c-3.2,40.5-29-11.7-29-11.7l47.5,49.8c0,0,32.6,56,61.1,84
		c28.5,28,111.1,37.8,111.1,37.8s51.3-51.2,53.8-66.8C372.5,343.6,365.2,318.4,366.4,294.8z"/>
	<g>
		<path d="M368.9,294.8c1.3-24.2,3.9-48.3,6.6-72.3c1.9-16.6,5.7-33.5,2.7-50.2c-2.5-14.2-9.1-27.6-17.8-39
			c-12-15.9-27.8-28.3-45.1-37.9c-0.7-0.4-1.8-0.5-2.5,0c-24.8,16.7-49,33.3-76.6,45.1c-13.5,5.8-27.4,10.7-41.4,15.3
			c-6.3,2-12.5,4-18.8,5.9c-3.4,1-6.9,2.1-10.3,3.1c-1.6,0.5-3.6,0.7-4.9,1.9c-2.1,2-2.8,5.9-3.5,8.6c-1.4,5.4-2.5,10.8-3.6,16.2
			c-3.1,14.9-6,30-10.4,44.6c-2.1,7.1-4.4,14.3-8.1,20.8c-1.7,3.1-5,8.6-9.3,8.1c-1.7-0.2-3,0.6-3.2,2.4c-0.2,2.7-0.5,12.7-4.7,12.9
			c-3.2,0.2-7.1-5.6-8.7-7.7c-4.3-5.6-7.9-11.8-11-18.1c-1.3,1-2.6,2-3.9,3c15.6,16.3,31.2,32.6,46.7,49c1.2,1.2,0.2,0.1,0.7,0.8
			c0.9,1.3,1.7,2.8,2.5,4.2c3.8,6.3,7.7,12.5,11.7,18.7c11.7,18,24,35.8,38.3,51.9c5.8,6.6,11.9,12.8,19.3,17.6
			c7.4,4.8,15.4,8.4,23.6,11.6c17,6.6,34.8,11,52.6,14.5c6.1,1.2,12.2,2.3,18.4,3.2c2.3,0.3,5.5,1.4,7.8,1.1
			c2.5-0.4,4.7-3.7,6.3-5.4c4.7-4.8,9.4-9.7,13.9-14.7c11.8-12.8,25-26.2,33.2-41.7c4.4-8.1,3.7-17.4,2.9-26.4
			C371.1,326.1,368.2,310.6,368.9,294.8c0.1-3.2-4.9-3.2-5,0c-0.6,14.1,1.5,28.1,3,42.1c0.9,8.4,2.8,19-0.9,27
			c-6,13.2-17.4,24.7-27,35.4c-5,5.6-10.1,11.1-15.3,16.5c-2.7,2.8-6.9,5.9-9,9.2c-0.9,1.5,0.9-0.1,0.8-0.2c-0.4-0.4-3-0.4-3.5-0.5
			c-5.5-0.8-10.9-1.7-16.4-2.7c-16.7-3.1-33.3-7-49.4-12.5c-16.5-5.7-31.9-13-44-25.8c-14.7-15.6-27.2-33.4-38.9-51.2
			c-4.4-6.7-8.7-13.5-12.9-20.3c-1.6-2.6-3-5.6-4.9-8c-2.2-2.8-5-5.2-7.4-7.8c-5.4-5.7-10.9-11.4-16.3-17.1
			c-7.9-8.3-15.8-16.6-23.7-24.9c-2-2.1-5.1,0.6-3.9,3c4.1,8.3,9,17,15.6,23.6c2.9,2.9,7.1,6.1,11.4,4.1c5.8-2.7,6.3-11.9,6.7-17.3
			c-1.1,0.8-2.1,1.6-3.2,2.4c10.2,1.4,15.5-10.6,18.7-18.3c5.8-14.2,9-29.4,12.2-44.3c2.4-11.4,3.6-24.2,7.9-35.1
			c0.2-0.5,0.4-1,0.6-1.5c0-0.1,0.5-0.7,0.1-0.2c-0.1,0.1-2.6,0.6,1.1-0.2c6.9-1.5,13.8-4.1,20.6-6.3c14.3-4.4,28.4-9.2,42.3-14.7
			c14.6-5.8,29-12.4,42.7-20.3c15.4-8.8,29.8-19.3,44.5-29.2c-0.8,0-1.7,0-2.5,0c27.9,15.5,54.1,40.2,60.4,72.8
			c3.1,16-0.7,32.4-2.5,48.4c-1.7,15-3.3,30.1-4.6,45.2c-0.8,9.6-1.6,19.2-2.1,28.8C363.8,298.1,368.8,298,368.9,294.8z"/>
	</g>
</g>
<g>
	<path class="st3" d="M122.1,281.8l-24.4-25.6C97.8,256.2,114,289.1,122.1,281.8z"/>
</g>
<g>
	<path class="st3" d="M323.1,371.5c-0.3,0.9-0.5,1.7-0.8,2.6c0.6-1,1.3-2.1,1.9-3.2C323.8,371.2,323.5,371.4,323.1,371.5z"/>
</g>
<g>
	<path class="st4" d="M287,297.1c-0.2,21.8-12.1,39.4-26.6,39.4s-26.1-17.7-25.9-39.5s12.1-39.4,26.6-39.4S287.2,275.3,287,297.1z"
		/>
</g>
<g>
	<path class="st5" d="M234.2,304.1c2.7-5.6,6.2-11.1,11-14.8c11-8.4,28.1-7.6,37.3,3c1.6,1.8,2.9,3.9,3.9,6c0-0.1,0-0.2,0-0.3
		c0.2-21.8-11.4-39.5-25.9-39.5c-14.5,0-26.4,17.6-26.6,39.4C233.9,300.1,234,302.2,234.2,304.1z"/>
</g>
<g>
	<path class="st1" d="M274.5,302.5c-0.3,18.4-9.6,33.4-20.8,33.5c-11.2,0.1-20-14.7-19.7-33.1c0.3-18.4,9.6-33.4,20.8-33.5
		S274.8,284.1,274.5,302.5z"/>
</g>
<g>
	<path class="st4" d="M368.7,284.3c-0.2,21.8-9.6,39.4-21,39.4c-11.4,0-20.6-17.7-20.4-39.5c0.2-21.8,9.6-39.4,21-39.4
		C359.8,244.8,368.9,262.5,368.7,284.3z"/>
</g>
<g>
	<path class="st5" d="M349.8,268.4c7.4-2.4,14,0.1,19.2,4.8c-2.7-15.4-10.3-26.5-19.3-26.5c-10.7,0-19.7,15.5-20.9,35.4
		C333.9,275.5,341.9,271,349.8,268.4z"/>
</g>
<g>
	<path class="st1" d="M358.4,292.6c-0.2,17.5-6.7,31.7-14.5,31.8c-7.8,0-13.9-14.1-13.6-31.6c0.2-17.5,6.7-31.7,14.5-31.8
		C352.5,260.9,358.6,275.1,358.4,292.6z"/>
</g>
<g>
	<path class="st6" d="M247.5,352c0.6,5.2-7,10.4-16.9,11.7c-10,1.3-18.5-1.9-19.1-7c-0.6-5.2,7-10.4,16.9-11.7
		C238.4,343.7,246.9,346.8,247.5,352z"/>
</g>
<g>
	<path class="st6" d="M381.5,326.2c0.6,5.2-5.9,10.3-14.4,11.4c-8.6,1.1-16-2.2-16.6-7.4c-0.6-5.2,5.9-10.3,14.4-11.4
		C373.4,317.7,380.9,321,381.5,326.2z"/>
</g>
<g>
	
		<ellipse transform="matrix(0.1433 -0.9897 0.9897 0.1433 -50.9686 492.995)" class="st4" cx="259.3" cy="275.9" rx="5.9" ry="5.4"/>
</g>
<g>
	
		<ellipse transform="matrix(0.1433 -0.9897 0.9897 0.1433 34.5436 572.7708)" class="st4" cx="348.1" cy="266.4" rx="4.4" ry="4.1"/>
</g>
<g>
	<path class="st1" d="M87.3,229.6c-2.7,64.7,15.1,44.6,15.1,44.6l25,52.3l17.4-43l17.2-0.7c0,0,16.1,4.9,19.7,25.5
		c3.6,20.6,18.5,49.7,18.5,49.7s9.1-66.6,10.3-97.9s-2.7-75.6-2.7-75.6s24.8,32.8,48.3,40.1c23.6,7.3,59.6,15.4,59.6,15.4
		s-4.2-50.5-10.8-65c-6.7-14.4-15.2-23.5-15.2-23.5l23.7,25.3l-8.1-27c0,0,41.5,56.5,48.3,70.4c6.8,13.9,21.6,44.7,21.6,44.7
		s16.7-80.8,0.8-111.6c-15.9-30.8-64.6-70.5-118.3-69.9"/>
	<g>
		<path class="st2" d="M84.8,229.6c-0.5,12-0.9,24.5,1.6,36.4c0.9,4.3,2.4,9.8,6.3,12.4c3.8,2.5,8.6,0.7,11.5-2.4
			c-1.3-0.2-2.6-0.3-3.9-0.5c8.3,17.4,16.7,34.9,25,52.3c1,2.2,3.8,1.2,4.6-0.6c5.8-14.3,11.6-28.7,17.4-43
			c-0.8,0.6-1.6,1.2-2.4,1.8c3.2-0.1,6.4-0.2,9.6-0.4c2-0.1,4-0.1,5.9-0.2c0.5,0,1.1-0.1,1.6-0.1c-0.1,0-0.9-0.1-0.3,0
			c7.3,2,13.3,10,15.8,16.6c2.3,6,2.9,12.6,4.8,18.7c1.9,6.3,4.2,12.4,6.7,18.4c2.8,6.8,5.8,13.6,9.2,20.2c0.9,1.8,4.3,1.6,4.6-0.6
			c2.6-18.7,4.9-37.5,6.9-56.3c3.1-29.1,4.4-57.7,2.9-86.9c-0.5-10.3-1.2-20.6-2.1-30.9c-1.6,0.4-3.1,0.8-4.7,1.3
			c11.8,15.5,27.1,31.7,45.2,39.5c12.5,5.4,26.7,8.1,39.9,11.4c8.1,2,16.1,3.9,24.2,5.7c1.5,0.3,3.3-0.7,3.2-2.4
			c-1.2-14.4-2.9-28.9-5.3-43.1c-1.3-7.8-2.7-15.9-5.9-23.1c-3.8-8.6-9.2-17.1-15.6-24c-1.2,1.2-2.4,2.4-3.5,3.5
			c7.9,8.4,15.8,16.9,23.7,25.3c1.7,1.8,4.9-0.1,4.2-2.4c-2.7-9-5.4-18-8.1-27c-1.5,0.6-3,1.3-4.6,1.9c9.1,12.5,18.2,25,27,37.7
			c5.9,8.4,11.7,16.8,17.1,25.5c4.9,7.8,8.6,16.3,12.6,24.6c4.4,9.1,8.8,18.2,13.1,27.3c0.9,1.9,4.1,1.4,4.6-0.6
			c5.2-25.5,8.5-52.3,7.6-78.3c-0.6-15.7-3.2-30.4-12.1-43.6c-11-16.3-26.2-29.9-42.7-40.4c-21.7-13.8-46.9-22.4-72.7-22.3
			c-3.2,0-3.2,5,0,5c41.9-0.2,84.7,23.6,109.2,57.4c4.2,5.9,8,12.1,10,19c2.2,7.7,3,15.7,3.4,23.7c0.7,16.4-0.7,32.8-2.7,49.1
			c-1.2,9.7-2.7,19.5-4.7,29.1c1.5-0.2,3-0.4,4.6-0.6c-7.9-16.4-14.8-33.8-24.2-49.4c-10.5-17.6-22.9-34.2-34.8-50.8
			c-3.6-5-7.2-10-10.8-14.9c-1.6-2.1-5.4-1-4.6,1.9c2.7,9,5.4,18,8.1,27c1.4-0.8,2.8-1.6,4.2-2.4c-7.9-8.4-15.8-16.9-23.7-25.3
			c-2.2-2.4-5.7,1.2-3.5,3.5c6.1,6.6,11.3,14.8,14.8,23c3.1,7.2,4.3,15.4,5.6,23c2.2,13.5,3.8,27.1,4.9,40.7
			c1.1-0.8,2.1-1.6,3.2-2.4c-20.4-4.6-41.6-8.8-61.3-15.9c-18-6.5-34.4-24.2-45.1-38.4c-1.3-1.7-4.9-1.5-4.7,1.3
			c2.2,24.1,3.5,48.5,2.8,72.7c-0.8,26-4.3,52-7.5,77.8c-0.9,7.4-1.9,14.8-2.9,22.2c1.5-0.2,3-0.4,4.6-0.6c-4-7.8-7.5-15.9-10.7-24
			c-2.5-6.5-4.9-13.2-6.5-20c-1.5-6.4-2.4-12.6-5.9-18.4c-3.3-5.6-9.6-12.3-16.3-13.9c-2.4-0.5-5.1,0-7.5,0.1
			c-3.5,0.1-7,0.3-10.6,0.4c-1.2,0-2,0.8-2.4,1.8c-5.8,14.3-11.6,28.7-17.4,43c1.5-0.2,3-0.4,4.6-0.6c-8.3-17.4-16.7-34.9-25-52.3
			c-0.7-1.4-2.9-1.6-3.9-0.5c-1.6,1.7-3.8,3-5.4,1.7c-3.2-2.6-3.9-8.3-4.5-12c-1.7-10.7-1.4-21.7-0.9-32.5
			C89.9,226.3,84.9,226.4,84.8,229.6L84.8,229.6z"/>
	</g>
</g>
<g>
	<path class="st7" d="M91.9,271.5c1.6,1.8,3.3,2.1,4.8,1.9C95.1,272.8,93.5,272.2,91.9,271.5z"/>
</g>
<g>
	<path class="st7" d="M303.3,163.4l9.2,9.8l-2.8-9.3c-1.7-1.5-3.5-3-5.3-4.4C304,160.8,303.7,162.1,303.3,163.4z"/>
</g>
<g>
	<path class="st0" d="M172.4,300.9c0,0-7.3-17.6-22.5-18.7c-15.2-1.1-28,42-17.3,51.3s27.1,24.1,37.6,20
		c10.4-4.1,11.7-12.9,11.7-12.9"/>
	<g>
		<path d="M174.6,299.6c-3.6-8.5-11.1-16.8-20.2-19.2c-10.9-2.9-17.8,5.9-22,14.9c-4.5,9.7-8,22.3-5.3,33c1.4,5.7,5.7,8.7,10,12.4
			c5.9,5,12.1,10.1,19.2,13.4c7.1,3.3,13.8,3.6,20.3-1.1c3.7-2.7,7.1-7,7.8-11.6c0.5-3.1-4.3-4.5-4.8-1.3c-0.5,3-2.4,5.8-4.6,7.8
			c-5.4,4.9-11.2,4.4-17.4,1.3c-6-3-11.3-7.3-16.4-11.6c-3.4-2.9-7.7-5.5-9.1-9.9c-2.5-8.2,0.1-18.3,3-26.1
			c2.4-6.3,7.4-17.8,15.8-16.7c9,1.1,16,9.4,19.4,17.3C171.5,305.1,175.8,302.6,174.6,299.6L174.6,299.6z"/>
	</g>
</g>
<g>
	<g>
		<path class="st8" d="M290.7,291.8c-3.7-12.3-10.6-27.6-22.5-33.8c-8-4.2-17.2-2.1-23.8,3.7c-7,6.1-10.4,15.4-12.1,24.3
			c-1.1,6.2-1.7,12.7-1.3,19c1.1-0.8,2.1-1.6,3.2-2.4c-4.9-0.8-9.7-1.6-14.6-2.4c-3.1-0.5-4.5,4.3-1.3,4.8c4.9,0.8,9.7,1.6,14.6,2.4
			c1.5,0.2,3.3-0.6,3.2-2.4c-1-14.9,2.2-38.9,19.2-43.7c16.5-4.7,27,19.4,30.7,31.8C286.8,296.2,291.6,294.9,290.7,291.8
			L290.7,291.8z"/>
	</g>
</g>
<g>
	<g>
		<path class="st8" d="M328.8,288.2c-0.5-12.8,1.5-35,15.6-40.3c13.4-5,20.9,19,23.2,28.4c0.4,1.5,2.3,2.4,3.7,1.5
			c3.9-2.6,7.7-5.1,11.6-7.7c2.7-1.8,0.2-6.1-2.5-4.3c-3.9,2.6-7.7,5.1-11.6,7.7c1.2,0.5,2.4,1,3.7,1.5
			c-2.6-10.7-7.5-25.1-17.7-30.8c-16.5-9.3-27.2,13.9-29.4,26.3c-1.1,5.8-1.7,11.9-1.4,17.8C323.9,291.4,328.9,291.4,328.8,288.2
			L328.8,288.2z"/>
	</g>
</g>
<path class="st9" d="M296.1,130.8l-1.2-6.5l5.3,3.3c1.5-0.9,3-1.7,4.6-2.3c12.8-4.5,28.2,1,39.2,7.7c11.5,7,20.2,18.2,25,30.7
	c1.1,3,2.1,6,2.8,9.1l10.6,11.4l-6.6-30.9c0,0-24.5-30.7-30.6-36.1c-6.1-5.4-29-18.4-29-18.4s1.3,8.5-11.3,15.3
	c-12.6,6.8-31.9-6.1-31.9-6.1s12.1,17.4,12,18.9c-0.2,1.5-14.4-2.1-14.4-2.1l9.2,9.4l9.6,4C291.3,135.7,293.6,133.1,296.1,130.8z"/>
<path class="st9" d="M192.5,172.6c0,0,7.9,18.8,7.9,25.4s-1.4,25-1.4,25s-1.2-21.3-8-23.3c-6.8-2-26,11.8-26,11.8l-2.9,19.9
	c0,0-5.7-16.5-4.9-25.5c0.8-9,2.8-19.3,2.8-19.3s0.5,17.7,7.6,14S192.5,172.6,192.5,172.6z"/>
<path class="st9" d="M208.3,159c0,0,17,24.2,22.4,28.9c5.4,4.7,21,13,21,13s-20.8-24.2-9.8-25.7c11-1.4,31.8-6.8,31.8-6.8l8.6,19
	c0,0,6.9-15.6-7-30.2s-29.1-11.8-29.1-11.8l0.6,19l-11.9-13.1l-0.6,11.3L208.3,159z"/>
<g>
	<g>
		<path class="st8" d="M282.7,370.6c5.5,3.5,12.9,5,19.1,6.1c6.8,1.1,14.4,1.7,21.1-0.2c3.1-0.9,1.8-5.7-1.3-4.8
			c-6.4,1.8-13.9,1.1-20.3-0.2c-5.3-1-11.5-2.2-16.1-5.2C282.5,364.5,280,368.9,282.7,370.6L282.7,370.6z"/>
	</g>
</g>
<g>
	<polyline class="st0" points="326.5,311.7 335.9,318.9 331.2,325.8 	"/>
	<g>
		<path d="M325.3,313.9c3.1,2.4,6.3,4.8,9.4,7.2c-0.3-1.1-0.6-2.3-0.9-3.4c-1.6,2.3-3.1,4.6-4.7,6.9c-1.8,2.7,2.5,5.2,4.3,2.5
			c1.6-2.3,3.1-4.6,4.7-6.9c0.8-1.2,0.1-2.6-0.9-3.4c-3.1-2.4-6.3-4.8-9.4-7.2C325.2,307.6,322.7,311.9,325.3,313.9L325.3,313.9z"/>
	</g>
</g>
<g>
	<path class="st0" d="M142.2,311.5c0,0-1.3-15.2,9.3-14.5c10.7,0.7,18,14.5,18,14.5l-8.7,12.1l12.7,8.1"/>
	<g>
		<path d="M144.7,311.5c-0.4-5.3,0.8-12.8,7.7-11.8c6.6,0.9,12,7.5,15,13.1c0-0.8,0-1.7,0-2.5c-2.9,4-5.8,8.1-8.7,12.1
			c-0.8,1.1-0.2,2.7,0.9,3.4c4.2,2.7,8.4,5.4,12.7,8.1c2.7,1.7,5.2-2.6,2.5-4.3c-4.2-2.7-8.4-5.4-12.7-8.1c0.3,1.1,0.6,2.3,0.9,3.4
			c2.9-4,5.8-8.1,8.7-12.1c0.5-0.7,0.4-1.8,0-2.5c-4.1-7.6-12.3-16.4-21.8-15.7c-8.3,0.6-10.8,9.9-10.2,16.9
			C140,314.7,145,314.8,144.7,311.5L144.7,311.5z"/>
	</g>
</g>
</svg>
