<?xml version="1.0" encoding="utf-8"?>

<!DOCTYPE svg PUBLIC "-//W3C//DTD SVG 1.1//EN" "http://www.w3.org/Graphics/SVG/1.1/DTD/svg11.dtd">
<svg version="1.1" id="Layer_1" xmlns="http://www.w3.org/2000/svg" xmlns:xlink="http://www.w3.org/1999/xlink" x="0px" y="0px"
	 viewBox="0 0 1427.466 1673.974" enable-background="new 0 0 1427.466 1673.974" xml:space="preserve">
<g>
	<path fill="#C68458" stroke="#C68458" stroke-width="1.7166" d="M660.046,475.06c17.269-9.201,36.049-17.956,56.203-15.072
		c29.011,1.27,47.757,26.883,74.09,35.397c25.818,9.888,54.246,6.729,79.996-1.682c51.808-11.879,110.174-13.424,157.21,14.797
		c18.951,10.231,38.899,26.986,38.487,50.538c-1.476,27.844-12.84,53.868-18.162,80.991c-3.399,17.613,6.764,34.161,18.574,46.315
		c7.656-8.652,14.248-18.196,22.179-26.642c9.236-1.099,17.51,5.116,24.274,10.746c15.999,15.381,22.453,38.487,22.076,60.22
		c-0.309,29.423-13.184,56.924-28.256,81.54c-16.411,25.818-38.968,50.469-70.107,57.164c-7.691,22.591-12.36,46.109-20.188,68.666
		c-10.54,30.831-28.771,59.052-52.77,81.128c-36.118,32.788-79,57.576-123.908,76.322c-27.672,12.291-56.649,21.458-85.66,30.041
		c-16.239,4.669-33.406,9.957-50.298,5.493c-35.5-8.789-70.211-20.6-104.234-33.852c-33.406-15.656-66.743-31.964-96.578-53.834
		c-32.719-23.278-61.456-53.594-76.906-91.119c-11.948-25.784-15.209-54.486-25.578-80.682c-8.652-6.97-20.737-8.274-29.732-14.969
		c-22.385-15.518-37.972-38.796-51.019-62.28c-15.21-27.192-21.115-59.773-14.557-90.364c4.36-19.57,18.059-36.633,36.77-44.255
		c7.004,8.48,13.493,17.475,21.321,25.303c18.677-5.287,34.985-19.089,45.251-35.466c9.888-15.278,6.317-33.955,4.017-50.847
		c-5.184-34.779,9.785-69.318,31.071-96.132c11.982-15.381,25.887-33.131,46.796-35.226c18.883-0.618,35.844,9.476,54.109,12.875
		C582.385,487.695,624.202,493.291,660.046,475.06z"/>
	<path fill="#A56A42" stroke="#A56A42" stroke-width="1.7166" d="M754.084,1125.531c29.011-8.583,57.988-17.75,85.66-30.041
		c-0.755,17.99-0.069,36.05-0.034,54.074c-1.03-1.442-3.09-4.292-4.154-5.699c-76.219,25.578-160.128,24.926-236.279-0.481
		c-0.79,7.965-1.648,15.93-2.197,23.93c0.755-23.381-1.785-46.967,2.472-70.142c34.024,13.253,68.734,25.063,104.234,33.852
		C720.678,1135.487,737.844,1130.2,754.084,1125.531z"/>
	<path fill="#C68458" stroke="#C68458" stroke-width="1.7166" d="M599.277,1143.384c76.15,25.406,160.06,26.059,236.279,0.481
		c1.065,1.408,3.124,4.257,4.154,5.699c-0.171,30.316,1.82,60.632,5.665,90.708c2.678,19.123,11.021,40.444,30.179,48.341
		c24.067,9.819,48.89,17.681,73.198,26.883c18.677,7.45,37.663,14.077,56.615,20.874c-4.223,38.247-13.321,75.773-19.295,113.779
		c-2.541,11.604-2.678,24.617-10.025,34.505c-41.955,49.474-100.87,84.081-164.523,96.647c-30.144,6.661-61.181,5.734-91.806,4.978
		c-27.535,0.652-55.379,1.579-82.468-4.12c-61.868-11.536-118.688-47.62-155.562-98.535c-10.884-20.703-15.381-44.015-23.45-65.816
		c-8.961-27.363-18.574-54.521-26.505-82.193c22.11-7.038,43.706-15.656,65.541-23.518c21.115-7.656,42.573-14.557,63.379-23.037
		c18.368-7.141,27.329-26.883,30.178-45.216c3.811-25.338,4.91-50.984,6.249-76.528
		C597.629,1159.314,598.487,1151.349,599.277,1143.384z"/>
	<path fill="#75341B" stroke="#75341B" stroke-width="1.7166" d="M1379.731,658.466c2.953-27.089-7.725-54.452-27.638-72.854
		c-8.274-6.592-5.012-18.197,1.718-24.549c32.85-31.01,17.831-86.884-10.682-114.655c-11.194-10.903-24.387-20.088-38.691-26.43
		c-7.725-3.425-10.063-2.684-10.073-11.146c-0.006-5.34,3.129-10.923,4.316-16.086c2.485-10.807,2.366-23.017-1.692-33.456
		c-2.85-7.587-5.974-15.038-8.24-22.797c-0.652-1.957-1.991-5.905-2.678-7.862c1.168-20.6-0.412-42.161-11.913-59.945
		c-18.549-32.226-61.976-49.284-97.984-48.816c-3.066,0.04-6.185,0.278-9.155-0.483c-9.81-2.512-14.863-14.176-22.81-19.779
		c-12.806-9.029-9.854-27.192-19.021-38.933c-20.746-26.573-49.267-52.654-85.052-53.115c-6.37-0.082-12.722,0.707-19.093,0.751
		c-21.037,0.144-41.709-11.948-62.607-14.657c-19.868-2.575-25.405-23.105-40.624-33.312c-11.378-7.631-23.649-11.675-36.423-16.158
		c-1.957-0.687-5.836-1.991-7.794-2.678c-2.094-0.515-6.283-1.545-8.377-2.06c-13.218-3.983-27.123-2.506-40.375,0.069
		c-16.205,2.506-30.625,10.815-46.078,15.794c-22.081,7.112-49.592-5.857-71.615-9.133c-22.385-3.33-45.388-3.845-67.636,0.343
		c-9.03,1.476-17.613,4.463-26.162,7.519c-1.82,0.927-5.425,2.85-7.249,3.812c-16.816,3.76-34.057,5.235-51.26,4.126
		c-17.908-1.155-34.871-7.18-52.661-1.792c-28.393,5.322-49.748,26.848-76.494,36.599c-27.26,9.682-38.796,41.714-67.224,49.096
		c-21.973,5.528-45.148,11.364-61.49,28.153c-17.166,17.166-24.891,40.719-33.234,62.863
		c-21.252,16.102-47.654,24.342-68.494,41.268c-13.531,11.613-20.972,29.573-23.135,46.973c-1.134,9.122-0.894,18.561,1.316,27.51
		c0.652,2.639,4.609,9.411,4.184,11.738c-0.111,0.606-6.815,8.881-7.187,8.88c-19.673-0.034-36.393,12.909-49.405,26.471
		c-11.193,10.952-17.475,25.921-20.772,41.028c-2.987,12.017-3.433,24.925,0.618,36.77c0.481,5.459,5.631,11.708,1.202,16.617
		c-17.544,23.93-31.964,50.95-35.672,80.751c-3.845,17.716-3.811,36.187-0.103,53.937c1.168,10.815,4.395,21.389,4.635,32.307
		c-8.618,17.544-19.673,34.401-22.351,54.211c-4.211,31.147,2.264,56.569,9.893,86.587c3.12,12.276,6.55,23.467,14.935,33.111
		c7.878,9.06,17.664,16.653,20.045,29.135c-0.309,1.545-0.893,4.635-1.167,6.18c-0.961,16.24-3.124,32.513-2.06,48.821
		c1.133,16.171-0.172,33.475,8.411,47.997c8.068,13.39,18.231,25.372,26.505,38.659c9.204,15.53,24.199,26.181,39.571,35.005
		c10.508,6.032,12.935,4.93,10.662,17.128c-5.398,28.967,5.192,50.71,25.353,71.289c11.853,12.099,25.801,21.799,39.979,30.947
		c15.276,9.856,28.867,7.116,45.354-0.078c-3.059,1.335,10.31,28.05,11.857,30.575c5.461,8.918,12.013,16.47,20.021,23.192
		c16.749,14.059,37.282,23.622,58.869,27.191c13.787,2.279,26.693-1.922,40.062-4.807c7.965,38.59,42.229,69.009,80.407,75.807
		c21.115-7.656,42.573-14.557,63.379-23.037c18.368-7.141,27.329-26.883,30.178-45.216c3.811-25.338,4.91-50.984,6.249-76.528
		c0.755-23.381-1.785-46.968,2.472-70.142c-33.406-15.656-66.743-31.964-96.578-53.834c-32.719-23.278-61.456-53.594-76.906-91.119
		c-11.948-25.784-15.209-54.486-25.578-80.682c-8.652-6.97-20.737-8.274-29.732-14.969c-22.385-15.518-37.972-38.796-51.019-62.28
		c-15.21-27.192-21.115-59.773-14.557-90.364c4.36-19.57,18.059-36.633,36.77-44.255c7.004,8.48,13.493,17.476,21.321,25.304
		c18.677-5.287,34.985-19.089,45.251-35.466c9.888-15.278,6.317-33.955,4.017-50.847c-5.184-34.779,9.785-69.318,31.071-96.132
		c11.982-15.381,25.887-33.131,46.796-35.226c18.883-0.618,35.844,9.476,54.109,12.875c37.869,7.519,79.686,13.115,115.53-5.116
		c17.269-9.201,36.049-17.956,56.203-15.072c29.011,1.27,47.757,26.883,74.09,35.397c25.818,9.888,54.246,6.729,79.996-1.682
		c51.808-11.879,110.174-13.424,157.21,14.797c18.951,10.231,38.899,26.986,38.487,50.538c-1.476,27.844-12.84,53.868-18.162,80.991
		c-3.399,17.613,6.764,34.161,18.574,46.315c7.656-8.652,14.248-18.196,22.179-26.642c9.236-1.099,17.51,5.116,24.274,10.746
		c15.999,15.381,22.453,38.487,22.076,60.22c-0.309,29.423-13.184,56.924-28.256,81.54c-16.411,25.818-38.968,50.469-70.107,57.164
		c-7.691,22.591-12.36,46.109-20.188,68.666c-10.54,30.831-28.771,59.053-52.77,81.129c-36.118,32.788-79,57.576-123.908,76.322
		c-0.755,17.99-0.069,36.05-0.034,54.074c-0.171,30.316,1.82,60.632,5.665,90.708c2.678,19.123,11.021,40.444,30.179,48.34
		c24.067,9.819,48.89,17.682,73.198,26.883c32.033-3.365,63.619-22.007,78.107-51.465c3.71-7.543,6.304-23.723,14.473-27.324
		c4.319-1.904,9.2-1.863,13.896-2.344c18.022-1.846,37.13-13.039,49.842-25.676c13.63-16.514,23.072-37.079,23.93-58.709
		c30.35,0.206,60.357-13.321,80.099-36.358c17.372-20.497,32.41-43.637,40.204-69.558c3.056-8.961,4.532-19.364,12.394-25.647
		c30.342-24.247,49.265-60.222,56.254-98.082c3.437-18.618,4.086-37.772,1.898-56.578c-1.313-11.282-1.127-14.533,5.769-23.859
		c6.445-8.716,14.154-16.476,19.708-25.843c15.364-25.909,11.423-56.924-0.922-83.209
		C1363.801,711.785,1380.933,686.86,1379.731,658.466z"/>
	<path fill="#8253C2" stroke="#8253C2" stroke-width="1.7166" d="M376.526,1345.123c17.132-5.562,34.642-10.025,51.534-16.377
		c0.892,1.717,2.746,5.15,3.673,6.867c7.931,27.672,17.544,54.83,26.505,82.193c8.068,21.801,12.566,45.113,23.45,65.816
		c36.873,50.916,93.694,87,155.562,98.535c27.089,5.699,54.933,4.772,82.468,4.12c30.625,0.755,61.662,1.682,91.806-4.978
		c63.653-12.566,122.568-47.173,164.523-96.647c7.347-9.888,7.484-22.9,10.025-34.505c5.974-38.006,15.072-75.532,19.295-113.779
		c1.58-1.511,4.772-4.532,6.352-6.077c15.106,4.807,30.247,9.476,45.457,14.111c8.651,31.243,9.27,63.962,14.282,95.892
		c5.906,47.757,12.051,95.445,17.785,143.202c2.3,16.377,4.807,32.788,5.047,49.405c-250.698-0.378-501.397,0.446-752.061-0.172
		C351.84,1536.666,366.912,1441.152,376.526,1345.123z"/>
	<path fill="#623F91" stroke="#623F91" stroke-width="1.7166" d="M275.449,1378.22c33.131-12.669,67.258-22.454,101.076-33.097
		c-9.613,96.029-24.686,191.543-34.298,287.606c250.664,0.618,501.362-0.206,752.061,0.172c-0.24-16.617-2.746-33.028-5.047-49.405
		c-5.734-47.757-11.879-95.445-17.785-143.202c-5.012-31.929-5.631-64.649-14.282-95.892
		c37.732,12.497,76.768,21.527,113.298,37.526c36.462,16.926,68.597,43.328,91.909,76.15
		c37.972,51.465,54.727,115.77,58.091,178.908H118.377c-4.223-8.858-1.305-18.505-0.171-27.638
		c5.424-41.234,16.342-82.193,36.221-118.895C181.583,1441.702,222.989,1399.129,275.449,1378.22z"/>
</g>
</svg>
