<?xml version="1.0" encoding="utf-8"?>
<svg version="1.1" id="Layer_1" xmlns="http://www.w3.org/2000/svg" xmlns:xlink="http://www.w3.org/1999/xlink" x="0px" y="0px"
	 viewBox="0 0 1435.389 1638.083" enable-background="new 0 0 1435.389 1638.083" xml:space="preserve">
<g>
	<path fill="#330000" stroke="#330000" d="M631.775,22.782c92.653-9.432,187.991-1.56,276.11,29.748
		c58.516,19.844,114.747,48.249,161.69,88.808c40.958,33.484,71.032,77.453,100.671,120.696
		c25.576,39.18,40.958,84.709,46.399,131.108c3.882,31.525,0.943,63.45,5.877,94.866c2.213,26.628,11.029,52.24,12.226,79.049
		c4.353,80.283-15.89,158.86-25.721,238.019c-11.827,81.843-11.936,165.463,2.286,247.016c8.489,53.8,23.472,106.62,26.845,161.182
		c1.995,36.06-6.349,72.084-21.73,104.625c-30.401-7.836-61.745-10.23-92.98-10.666c-73.789-20.424-147.252-42.155-220.859-63.16
		c-22.275-5.623-35.806-27.644-38.164-49.41c-3.918-28.659-6.748-57.609-6.675-86.559c0.363-21.948-1.379-43.86-0.689-65.808
		c51.224-20.932,101.65-45.819,144.204-81.661c26.99-22.202,48.249-51.333,61.201-83.802c9.867-25.866,16.361-52.784,25.249-78.977
		c32.142-4.063,56.775-27.825,75.748-52.313c21.404-28.551,39.543-62.289,38.817-98.893c0.145-20.025-6.892-39.688-18.901-55.614
		c-24.633,49.156-53.437,96.826-90.731,137.457c-0.109-6.276,0.073-12.516,0.254-18.756c3.301-29.893,2.975-60.003,0.363-89.933
		c-0.073-10.049-2.032-20.025-6.421-29.059c17.05-16.289,17.123-41.828,22.129-63.414c-34.754-8.017-70.306-11.681-105.677-15.817
		c-48.757-40.522-101.759-77.526-162.38-97.95c-68.021-22.166-140.504-34.754-212.007-25.794c-23,2.358-45.565,8.235-68.638,9.106
		c-24.596-0.181-45.601-15.273-61.817-32.432c-33.231,24.342-65.7,49.737-97.878,75.422c-28.333,23.798-58.697,47.27-76.655,80.392
		c-12.226,1.741-24.306,4.426-36.278,7.183c3.447,19.554,6.276,39.978,16.688,57.319c0.399,34.827,5.442,69.399,16.107,102.594
		c-24.451-13.169-45.275-33.049-59.205-57.101c-5.986-10.448-10.775-21.513-16.325-32.178c-17.958,27.97-17.341,64.03-5.623,94.25
		c9.36,23.798,23.544,45.601,40.305,64.901c17.159,19.59,39.071,37.257,65.808,40.486c12.842,36.967,19.88,76.546,40.994,110.139
		c26.41,44.477,70.596,74.297,114.71,99.22c23.834,13.894,49.773,23.544,74.587,35.552c0.182,24.342-0.326,48.685-0.073,73.027
		c-2.576,29.675-2.866,59.713-8.888,88.953c-3.773,19.771-19.663,36.06-39.217,40.595c-70.306,19.735-140.25,40.885-210.738,59.895
		c-41.066,4.063-82.024,12.915-119.39,30.836c-12.261-18.574-22.093-39.035-26.374-60.983c-8.417-40.232-0.69-81.407,8.235-120.805
		c11.645-49.592,24.306-99.111,30.51-149.755c12.189-85.724,3.156-172.537-11.137-257.391
		c-12.371-78.977-29.349-161.327-6.675-240.087c7.691-32.614,6.603-66.461,12.589-99.365
		c10.883-70.488,37.366-138.944,79.484-196.698c42.772-59.133,101.796-105.75,168.003-136.078
		C509.011,48.938,569.377,29.602,631.775,22.782z"/>
	<path fill="#F9E0CA" stroke="#F9E0CA" d="M400.576,439.868c32.178-25.685,64.647-51.079,97.878-75.422
		c16.216,17.159,37.221,32.251,61.817,32.432c23.073-0.871,45.638-6.748,68.638-9.106c71.503-8.961,143.986,3.628,212.007,25.794
		c60.621,20.424,113.622,57.428,162.38,97.95c-51.297-4.716-103.174-7.147-154.434-1.016c-33.049,4.39-67.477,12.008-94.177,33.194
		c-10.811,8.126-13.459,22.202-17.559,34.283c-25.902,0.979-51.877,0.979-77.779-0.036c-4.063-12.081-6.603-26.156-17.377-34.355
		c-27.39-22.166-63.232-29.095-97.297-33.448c-73.608-7.981-147.76-0.181-220.751,10.121
		C341.879,487.138,372.244,463.666,400.576,439.868z"/>
	<path fill="#27397C" stroke="#27397C" d="M323.921,520.259c72.991-10.303,147.143-18.103,220.751-10.121
		c34.065,4.353,69.907,11.282,97.297,33.448c10.774,8.199,13.314,22.275,17.377,34.355c25.902,1.016,51.877,1.016,77.779,0.036
		c4.099-12.081,6.748-26.156,17.559-34.283c26.7-21.186,61.128-28.805,94.177-33.194c51.261-6.131,103.138-3.7,154.434,1.016
		c35.371,4.136,70.923,7.8,105.677,15.817c-5.006,21.585-5.079,47.125-22.129,63.414c-14.838,14.62-12.226,37.257-15.636,56.122
		c-4.571,35.879-22.492,70.742-51.732,92.545c-29.204,22.13-65.99,32.251-102.195,33.883c-14.076-4.027-28.732-3.954-42.735,0.109
		c-42.155-2.104-85.434-19.191-112.026-53.038c-24.596-30.945-31.888-71.794-30.655-110.43c-20.823-7.002-44.005-8.489-64.937-1.306
		c-3.591,4.607-1.959,10.992-2.648,16.398c0.109,40.486-13.641,82.677-44.041,110.539c-26.737,24.016-62.761,36.06-98.276,37.838
		c-14.039-4.244-28.696-3.918-42.735-0.073c-33.593-1.705-67.549-10.666-95.701-29.53c-25.793-17.304-44.694-44.005-53.292-73.825
		c-7.183-22.71-5.261-47.306-13.278-69.799c-1.995-6.711-7.8-10.883-12.625-15.418c-10.412-17.341-13.241-37.765-16.688-57.319
		C299.615,524.685,311.696,522.001,323.921,520.259 M405.511,539.196c-31.38,3.12-61.818,30.945-59.06,64.03
		c0.109,45.275,13.024,94.83,49.084,124.868c32.505,27.1,77.163,30.872,117.721,28.043c36.205-2.213,74.333-14.983,97.442-44.404
		c30.51-39.579,34.246-98.422,8.126-141.193c-14.257-17.921-38.454-22.674-59.604-27.499
		C508.503,534.516,456.626,535.605,405.511,539.196 M855.791,540.031c-27.208,4.716-58.661,8.598-77.889,30.51
		c-31.308,50.172-20.424,125.05,28.406,160.421c33.557,24.052,76.872,27.934,116.923,25.141
		c32.033-1.524,64.828-12.77,87.212-36.532c30.691-32.795,40.885-80.065,39.724-123.816c-2.358-30.872-31.344-55.033-61.419-56.956
		C944.49,535.859,899.904,535.46,855.791,540.031z"/>
	<path fill="#F9E0CA" stroke="#F9E0CA" d="M405.511,539.196c51.115-3.591,102.992-4.68,153.709,3.845
		c21.15,4.825,45.347,9.577,59.604,27.499c26.12,42.772,22.384,101.614-8.126,141.193c-23.109,29.421-61.237,42.191-97.442,44.404
		c-40.559,2.83-85.217-0.943-117.721-28.043c-36.06-30.038-48.975-79.594-49.084-124.868
		C343.693,570.141,374.13,542.316,405.511,539.196z"/>
	<path fill="#F9E0CA" stroke="#F9E0CA" d="M855.791,540.031c44.114-4.571,88.699-4.172,132.958-1.233
		c30.074,1.923,59.06,26.084,61.419,56.956c1.161,43.751-9.033,91.021-39.724,123.816c-22.384,23.762-55.179,35.008-87.212,36.532
		c-40.051,2.793-83.366-1.088-116.923-25.141c-48.83-35.371-59.714-110.248-28.406-160.421
		C797.129,548.628,828.582,544.747,855.791,540.031z"/>
	<path fill="#F9E0CA" stroke="#F9E0CA" d="M304.332,584.761c4.825,4.535,10.629,8.707,12.625,15.418
		c8.017,22.492,6.094,47.089,13.278,69.799c8.598,29.82,27.498,56.521,53.292,73.825c28.152,18.865,62.108,27.825,95.701,29.53
		c14.185,0.871,28.478,0.943,42.735,0.073c35.516-1.778,71.54-13.822,98.276-37.838c30.401-27.861,44.15-70.052,44.041-110.539
		c0.689-5.405-0.943-11.79,2.648-16.398c20.932-7.183,44.114-5.696,64.937,1.306c-1.233,38.636,6.058,79.485,30.655,110.43
		c26.592,33.847,69.871,50.934,112.026,53.038c14.185,0.871,28.478,0.798,42.735-0.109c36.205-1.632,72.991-11.754,102.195-33.883
		c29.24-21.803,47.161-56.666,51.732-92.545c3.41-18.864,0.798-41.502,15.636-56.122c4.389,9.033,6.349,19.01,6.421,29.059
		c-5.66,18.175-1.669,37.185-2.866,55.795c-0.653,11.464,0.254,22.928,2.503,34.137c-0.182,6.24-0.363,12.48-0.254,18.756
		c37.294-40.631,66.098-88.3,90.731-137.457c12.008,15.926,19.046,35.589,18.901,55.614c0.726,36.604-17.413,70.343-38.817,98.893
		c-18.973,24.487-43.606,48.249-75.748,52.313c-8.888,26.193-15.382,53.111-25.249,78.977c-12.951,32.469-34.21,61.6-61.201,83.802
		c-42.554,35.842-92.98,60.729-144.204,81.661c-39.507,15.491-80.537,26.846-121.676,37.112
		c-17.486,4.825-35.516,0.762-52.458-3.845c-36.024-9.976-72.338-19.626-107.237-32.94c-24.814-12.008-50.753-21.658-74.587-35.552
		c-44.114-24.923-88.301-54.743-114.71-99.22c-21.114-33.593-28.152-73.172-40.994-110.139
		c-26.737-3.229-48.649-20.896-65.808-40.486c-16.76-19.3-30.945-41.103-40.305-64.901c-11.718-30.219-12.335-66.28,5.623-94.25
		c5.55,10.666,10.339,21.73,16.325,32.178c13.931,24.052,34.754,43.932,59.205,57.101
		C309.773,654.161,304.731,619.588,304.332,584.761z"/>
	<path fill="#FFFBE5" stroke="#FFFBE5" d="M1090.399,675.601c1.198-18.611-2.793-37.62,2.866-55.795
		c2.612,29.929,2.938,60.04-0.363,89.933C1090.653,698.528,1089.746,687.065,1090.399,675.601z"/>
	<path fill="#00156C" stroke="#00156C" d="M479.227,773.333c14.039-3.845,28.696-4.172,42.735,0.073
		C507.705,774.276,493.412,774.204,479.227,773.333z"/>
	<path fill="#00156C" stroke="#00156C" d="M874.546,773.406c14.003-4.063,28.66-4.136,42.735-0.109
		C903.024,774.204,888.731,774.276,874.546,773.406z"/>
	<path fill="#E5CDBA" stroke="#E5CDBA" d="M575.69,1042.623c34.899,13.314,71.213,22.964,107.237,32.94
		c16.941,4.607,34.972,8.67,52.458,3.845c41.139-10.266,82.169-21.621,121.676-37.112c-0.69,21.948,1.052,43.86,0.689,65.808
		c-1.197-4.68-2.503-9.251-3.7-13.858c-29.929,6.748-59.713,14.838-90.404,16.978c-52.422,6.421-105.605,1.052-157.01-10.121
		c-10.811-1.814-20.388-7.255-28.768-14.076c-0.616,9.541-1.487,19.082-2.249,28.623
		C575.363,1091.308,575.871,1066.966,575.69,1042.623z"/>
	<path fill="#F9E0CA" stroke="#F9E0CA" d="M577.866,1087.027c8.38,6.82,17.958,12.262,28.768,14.076
		c51.406,11.174,104.589,16.543,157.01,10.121c30.691-2.14,60.475-10.23,90.404-16.978c1.197,4.607,2.503,9.178,3.7,13.858
		c-0.073,28.95,2.757,57.899,6.675,86.559c2.358,21.767,15.889,43.787,38.164,49.41c73.608,21.005,147.07,42.735,220.859,63.16
		c-64.719,88.191-155.269,158.715-258.915,194.776c-90.187,30.909-190.168,31.997-281.008,3.193
		c-56.557-17.704-109.341-46.69-155.777-83.366c-42.808-32.977-78.723-73.68-110.974-116.742
		c70.488-19.01,140.432-40.16,210.738-59.895c19.554-4.535,35.443-20.823,39.217-40.595c6.022-29.24,6.312-59.278,8.888-88.953
		C576.379,1106.109,577.25,1096.569,577.866,1087.027z"/>
	<path fill="#FF3333" stroke="#FF3333" d="M197.384,1335.929c37.366-17.921,78.324-26.773,119.39-30.836
		c32.251,43.062,68.166,83.765,110.974,116.742c46.436,36.677,99.22,65.663,155.777,83.366
		c90.84,28.805,190.821,27.716,281.008-3.193c103.646-36.06,194.195-106.584,258.915-194.776c31.235,0.435,62.579,2.83,92.98,10.666
		c67.404,16.651,129.113,58.951,164.157,119.499c33.049,54.09,42.082,119.318,36.532,181.643H16.757
		c0.98-48.431,12.697-96.535,33.774-140.141C81.151,1416.321,134.043,1364.988,197.384,1335.929z"/>
</g>
</svg>
